<?xml version="1.0" encoding="utf-8"?>
<!-- Generator: Adobe Illustrator 23.0.1, SVG Export Plug-In . SVG Version: 6.00 Build 0)  -->
<svg version="1.1" id="レイヤー_1" xmlns="http://www.w3.org/2000/svg" xmlns:xlink="http://www.w3.org/1999/xlink" x="0px"
	 y="0px" viewBox="0 0 231 68" style="enable-background:new 0 0 231 68;" xml:space="preserve">
<style type="text/css">
	.st0{fill:none;stroke:#CCCCCC;stroke-width:10;stroke-linecap:round;}
	.st1{fill:none;stroke:#CCCCCC;stroke-width:10;stroke-linecap:round;stroke-linejoin:round;}
	.st2{fill:#CCCCCC;}
</style>
<g id="Group_16" transform="translate(-831.5 -2758.5)">
	<g id="Group_13">
		<g id="Group_14">
			<line id="Line_2" class="st0" x1="836.5" y1="2821.5" x2="1057.5" y2="2821.5"/>
		</g>
		<path id="Path_2" class="st1" d="M990.5,2763.5l39.7,34.3l26.3,22.7"/>
	</g>
	<path id="Path_6" class="st2" d="M849.7,2786h8c-0.4,1.5-1.2,2.9-2.4,3.9c-1.6,1.3-3.7,1.9-5.8,1.8c-2.5,0.1-5-0.8-6.8-2.6
		c-1.9-2.1-2.9-4.8-2.8-7.6c-0.1-2.9,0.9-5.7,2.8-7.9c1.8-1.8,4.3-2.8,6.9-2.7c1.8,0,3.6,0.5,5.1,1.6c1.3,1,2.3,2.2,3,3.6l7-3.8
		c-1.3-2.4-3.2-4.4-5.4-6c-2.8-1.7-6.1-2.6-9.3-2.5c-4,0-9,0.6-13.1,4.9c-3.2,3.4-4.9,8-4.8,12.6c-0.1,4.7,1.6,9.3,4.9,12.7
		c3.9,4,8.2,4.6,12.2,4.6c4,0,8.2-0.7,11.9-4.6c3.7-3.8,5.2-10,5.2-14.1v-0.3h-16.5V2786z M901.2,2763.9c-6.7,0-10.8,2.7-13.1,4.9
		c-3.3,3.4-5.1,7.9-5.1,12.6c0,4.7,1.8,9.2,5.2,12.4c3.5,3.3,8.2,5,13,4.9c4.8,0.2,9.4-1.6,12.9-4.9c3.4-3.3,5.2-7.8,5.2-12.5
		c0.1-4.7-1.8-9.3-5.2-12.6C910.6,2765.5,905.9,2763.7,901.2,2763.9z M901.1,2771c2.7,0,5.4,1,7.4,2.9c1.9,2,3,4.7,2.9,7.5
		c0.1,2.8-0.9,5.5-2.9,7.4c-2,1.9-4.6,2.9-7.4,2.8c-2.7,0.1-5.2-0.9-7.1-2.8c-2-2-3.1-4.7-3.1-7.5c-0.1-2.8,1-5.5,3-7.5
		C895.8,2772,898.4,2770.9,901.1,2771z"/>
</g>
</svg>
