<svg xmlns="http://www.w3.org/2000/svg" width="791.1" height="104.55" viewBox="0 0 791.1 104.55">
  <defs>
    <style>
      .cls-1 {
        fill: #fff;
      }
    </style>
  </defs>
  <g id="Group_11" data-name="Group 11" transform="translate(-146.3 -626.7)">
    <g id="Group_8" data-name="Group 8" transform="translate(1 234)">
      <path id="Path_6" data-name="Path 6" class="cls-1" d="M60.9-102.3c-19.95,0-32.4,7.95-39.15,14.7-9,9-15.45,23.55-15.45,37.95,0,14.7,6,28.2,15.6,37.2,7.5,7.2,20.25,14.7,39,14.7,16.8,0,29.4-5.7,38.7-14.7a51.728,51.728,0,0,0,15.6-37.5,52.054,52.054,0,0,0-15.6-37.8C89.55-97.5,76.5-102.3,60.9-102.3ZM60.75-81A32.09,32.09,0,0,1,82.8-72.45c4.5,4.5,8.7,12.15,8.7,22.5,0,11.55-4.8,18.6-8.7,22.35-4.8,4.8-12,8.55-22.2,8.55-7.8,0-15-2.1-21.45-8.25C33-33.3,30-40.65,30-49.8c0-11.1,4.5-18.45,8.85-22.65C44.25-77.85,52.05-81,60.75-81ZM188.4,0l7.95-59.7L221.4,0h8.1l25.05-59.7L262.5,0h23.1L269.55-100.05h-19.2L225.45-40.2l-24.9-59.85h-19.2L165.3,0ZM406.65,0h24L391.2-100.05H370.05L329.7,0h24l7.65-18.9h37.8ZM368.1-36.6l12.45-33.6,12.3,33.6Zm111.3-63.45V0h23.1V-39.45L529.5,0h28.2L526.95-40.95A31.481,31.481,0,0,0,540.9-48.6c6.45-6.3,7.8-14.1,7.8-20.4,0-11.1-4.5-18.3-8.7-22.35-4.8-4.5-12.75-8.7-25.5-8.7Zm23.1,18h5.4c3,0,9,.3,12.75,3.15,1.95,1.5,4.65,4.5,4.65,10.2a13.468,13.468,0,0,1-3.75,9.75c-3.9,3.9-9.6,4.35-13.8,4.35H502.5Zm159.15,1.5v-19.5h-66.6v19.5H616.8V0h23.1V-80.55Zm72.75-19.5H711.3V0h23.1V-42.45h39.9V0h23.1V-100.05H774.3v38.1H734.4Z" transform="translate(139 495)"/>
      <g id="Group_12" data-name="Group 12">
        <g id="Group_7" data-name="Group 7" transform="translate(1)">
          <circle id="Ellipse_1" data-name="Ellipse 1" class="cls-1" cx="33" cy="33" r="33" transform="translate(166 411)"/>
          <g id="Group_3" data-name="Group 3" transform="translate(-3 -198)">
            <g id="Group_4" data-name="Group 4" transform="translate(1 1)">
              <circle id="Ellipse_2" data-name="Ellipse 2" cx="15.5" cy="15.5" r="15.5" transform="translate(186 610)"/>
              <path id="Path_3" data-name="Path 3" d="M.5,0H8.667l3.5,38.5H-3Z" transform="translate(197 634.5)"/>
            </g>
          </g>
        </g>
      </g>
    </g>
  </g>
</svg>
